<svg width="586" height="652"><path fill="#c4c4c4" stroke="#090" stroke-linecap="round" stroke-linejoin="round" d="M179.35 132.09h100v50h-100zm0 0"/><text x="213.01" y="161.83" font-family="Helvetica" font-size="12">Model</text><path fill="#c4c4c4" stroke="#090" stroke-linecap="round" stroke-linejoin="round" d="M225 550h100v50H225zm0 0"/><text x="262.1" y="579.74" font-family="Helvetica" font-size="12">View</text><path fill="#c4c4c4" stroke="#090" stroke-linecap="round" stroke-linejoin="round" d="M414.22 444.17h100v50h-100zm0 0"/><text x="438.21" y="473.91" font-family="Helvetica" font-size="12">Controller</text><path fill="#c4c4c4" stroke="#090" stroke-linecap="round" stroke-linejoin="round" d="M50 350h100v50H50zm0 0"/><text x="87.33" y="379.74" font-family="Helvetica" font-size="12">User</text><path fill="none" stroke="#090" stroke-linecap="round" stroke-linejoin="round" d="M150 387.5l264.22 69.17m-8.47.79l8.47-.79-7-4.84m7-7.66L179.35 182.09m7.51 4.01l-7.51-4.01 3.17 7.9"/><path fill="#c4c4c4" stroke="#090" stroke-linecap="round" stroke-linejoin="round" d="M175 25h100v50H175zm0 0"/><text x="198.65" y="54.74" font-family="Helvetica" font-size="12">DataBase</text><path fill="none" stroke="#090" stroke-linecap="round" stroke-linejoin="round" d="M204.35 132.09L200 75m3.51 7.76L200 75l-2.3 8.2M225 75l4.35 57.09m-3.51-7.76l3.51 7.76 2.3-8.2m22.7 8.2L250 75m3.51 7.76L250 75l-2.3 8.2m31.65 98.89l159.87 262.08m-6.65-5.31l6.65 5.31-1.68-8.34m1.68 58.34L325 562.5m5.37-6.61L325 562.5l8.36-1.61M250 550L125 400m7.36 4.28L125 400l2.88 8.01"/></svg>